<?xml version="1.0" encoding="UTF-8" standalone="no"?>
<!-- Created with Inkscape (http://www.inkscape.org/) --><svg height="48" id="svg2" inkscape:export-filename="/home/andreas/project/gnome-icon-theme/22x22/emotes/face-monkey.png" inkscape:export-xdpi="90" inkscape:export-ydpi="90" inkscape:output_extension="org.inkscape.output.svg.inkscape" inkscape:version="0.45.1" sodipodi:docbase="/home/lapo/Icone/gnome-icon-theme/scalable/emotes" sodipodi:docname="face-monkey.svg" sodipodi:version="0.32" version="1.0" width="48" xmlns="http://www.w3.org/2000/svg" xmlns:cc="http://web.resource.org/cc/" xmlns:dc="http://purl.org/dc/elements/1.1/" xmlns:inkscape="http://www.inkscape.org/namespaces/inkscape" xmlns:rdf="http://www.w3.org/1999/02/22-rdf-syntax-ns#" xmlns:sodipodi="http://sodipodi.sourceforge.net/DTD/sodipodi-0.dtd" xmlns:svg="http://www.w3.org/2000/svg" xmlns:xlink="http://www.w3.org/1999/xlink">
  <metadata>
    <rdf:RDF xmlns:cc="http://web.resource.org/cc/" xmlns:dc="http://purl.org/dc/elements/1.1/" xmlns:rdf="http://www.w3.org/1999/02/22-rdf-syntax-ns#">
      <cc:Work rdf:about="">
        <dc:title>face-monkey</dc:title>
        <dc:description></dc:description>
        <dc:subject>
          <rdf:Bag>
            <rdf:li>monkey</rdf:li>
            <rdf:li>emotes</rdf:li>
          </rdf:Bag>
        </dc:subject>
        <dc:publisher>
          <cc:Agent rdf:about="http://www.openclipart.org/">
            <dc:title>Open Clip Art Library, Source: GNOME Icon Theme, Source: GNOME Icon Theme, Source: GNOME Icon Theme, Source: GNOME Icon Theme</dc:title>
          </cc:Agent>
        </dc:publisher>
        <dc:creator>
          <cc:Agent>
            <dc:title>Ulisse Perusin</dc:title>
          </cc:Agent>
        </dc:creator>
        <dc:rights>
          <cc:Agent>
            <dc:title>Ulisse Perusin</dc:title>
          </cc:Agent>
        </dc:rights>
        <dc:date></dc:date>
        <dc:format>image/svg+xml</dc:format>
        <dc:type rdf:resource="http://purl.org/dc/dcmitype/StillImage"/>
        <cc:license rdf:resource="http://creativecommons.org/licenses/GPL/2.0/"/>
        <dc:language>en</dc:language>
      </cc:Work>
    </rdf:RDF>
  </metadata>
  <defs id="defs4">
    <linearGradient id="linearGradient7033" inkscape:collect="always">
      <stop id="stop7035" offset="0" style="stop-color:#533401;stop-opacity:1;"/>
      <stop id="stop7037" offset="1" style="stop-color:#533401;stop-opacity:0;"/>
    </linearGradient>
    <linearGradient id="linearGradient7025" inkscape:collect="always">
      <stop id="stop7027" offset="0" style="stop-color:#533401;stop-opacity:1;"/>
      <stop id="stop7029" offset="1" style="stop-color:#533401;stop-opacity:0;"/>
    </linearGradient>
    <linearGradient id="linearGradient6971" inkscape:collect="always">
      <stop id="stop6973" offset="0" style="stop-color:#ffffff;stop-opacity:1;"/>
      <stop id="stop6975" offset="1" style="stop-color:#ffffff;stop-opacity:0;"/>
    </linearGradient>
    <linearGradient id="linearGradient6107">
      <stop id="stop6109" offset="0" style="stop-color:#e9b96e;stop-opacity:1;"/>
      <stop id="stop6115" offset="0.78742659" style="stop-color:#e9b96e;stop-opacity:1;"/>
      <stop id="stop6111" offset="1" style="stop-color:#8f5902;stop-opacity:1"/>
    </linearGradient>
    <linearGradient id="linearGradient6067" inkscape:collect="always">
      <stop id="stop6069" offset="0" style="stop-color:#2e3436;stop-opacity:1;"/>
      <stop id="stop6071" offset="1" style="stop-color:#000000;stop-opacity:1"/>
    </linearGradient>
    <linearGradient id="linearGradient6044" inkscape:collect="always">
      <stop id="stop6046" offset="0" style="stop-color:#a40000;stop-opacity:1;"/>
      <stop id="stop6048" offset="1" style="stop-color:#a40000;stop-opacity:0;"/>
    </linearGradient>
    <linearGradient id="linearGradient6026" inkscape:collect="always">
      <stop id="stop6028" offset="0" style="stop-color:#efca8e;stop-opacity:1"/>
      <stop id="stop6030" offset="1" style="stop-color:#e9b768;stop-opacity:1"/>
    </linearGradient>
    <linearGradient id="linearGradient6016" inkscape:collect="always">
      <stop id="stop6018" offset="0" style="stop-color:#c17d11;stop-opacity:1;"/>
      <stop id="stop6020" offset="1" style="stop-color:#9a640d;stop-opacity:1"/>
    </linearGradient>
    <linearGradient id="linearGradient5992" inkscape:collect="always">
      <stop id="stop5994" offset="0" style="stop-color:#8f5902;stop-opacity:1;"/>
      <stop id="stop5996" offset="1" style="stop-color:#744800;stop-opacity:1"/>
    </linearGradient>
    <linearGradient id="linearGradient3398" inkscape:collect="always">
      <stop id="stop3400" offset="0" style="stop-color:#ffffff;stop-opacity:1;"/>
      <stop id="stop3402" offset="1" style="stop-color:#ffffff;stop-opacity:0.02568627"/>
    </linearGradient>
    <linearGradient id="linearGradient3390" inkscape:collect="always">
      <stop id="stop3392" offset="0" style="stop-color:#ffffff;stop-opacity:1;"/>
      <stop id="stop3394" offset="1" style="stop-color:#ffffff;stop-opacity:0;"/>
    </linearGradient>
    <linearGradient id="linearGradient3150" inkscape:collect="always">
      <stop id="stop3152" offset="0" style="stop-color:#2e3436;stop-opacity:1;"/>
      <stop id="stop3154" offset="1" style="stop-color:#2e3436;stop-opacity:0;"/>
    </linearGradient>
    <radialGradient cx="10.748654" cy="10.457643" fx="10.748654" fy="10.457643" gradientTransform="matrix(-0.842757,0,0,-0.35721,19.80716,14.19321)" gradientUnits="userSpaceOnUse" id="radialGradient3363" inkscape:collect="always" r="6.6449099" xlink:href="#linearGradient3150"/>
    <radialGradient cx="16.571363" cy="4.5158162" fx="16.571363" fy="4.5158162" gradientTransform="matrix(1.9142934,2.2544079e-3,-2.8759152e-3,2.4420352,-13.23958,-8.6794257)" gradientUnits="userSpaceOnUse" id="radialGradient3396" inkscape:collect="always" r="6.96875" xlink:href="#linearGradient3390"/>
    <linearGradient gradientUnits="userSpaceOnUse" id="linearGradient3404" inkscape:collect="always" x1="8.3736019" x2="25.498098" xlink:href="#linearGradient3398" y1="2.9100885" y2="43.464977"/>
    <linearGradient gradientTransform="matrix(2.0758542,0,0,2.0526248,1.1655453,1.4208674)" gradientUnits="userSpaceOnUse" id="linearGradient5998" inkscape:collect="always" x1="6.5056138" x2="14.195889" xlink:href="#linearGradient5992" y1="4.1361318" y2="20.028084"/>
    <linearGradient gradientUnits="userSpaceOnUse" id="linearGradient6006" inkscape:collect="always" x1="4.5483284" x2="7.2317519" xlink:href="#linearGradient5992" y1="2.2576585" y2="8.2374868"/>
    <linearGradient gradientUnits="userSpaceOnUse" id="linearGradient6014" inkscape:collect="always" x1="3.1526313" x2="5.5769644" xlink:href="#linearGradient5992" y1="2.9913363" y2="7.6185937"/>
    <radialGradient cx="10.148121" cy="9.4611959" fx="10.148121" fy="9.4611959" gradientTransform="matrix(2.0487225,-0.3333485,0.4394892,2.6401809,-2.7172146,-1.5449635)" gradientUnits="userSpaceOnUse" id="radialGradient6022" inkscape:collect="always" r="8.0000286" xlink:href="#linearGradient6016"/>
    <radialGradient cx="11.228074" cy="16.211924" fx="11.228074" fy="16.211924" gradientTransform="matrix(1,0,0,0.423375,0,9.3482007)" gradientUnits="userSpaceOnUse" id="radialGradient6050" inkscape:collect="always" r="2.6223004" xlink:href="#linearGradient6044"/>
    <radialGradient cx="15.086278" cy="12.519321" fx="15.086278" fy="12.519321" gradientTransform="matrix(-2.3334053,0.210666,-0.1418036,-1.6936244,60.083985,39.649881)" gradientUnits="userSpaceOnUse" id="radialGradient6021" inkscape:collect="always" r="9" xlink:href="#linearGradient6026"/>
    <linearGradient gradientUnits="userSpaceOnUse" id="linearGradient6085" inkscape:collect="always" x1="2.5554368" x2="6.3627462" xlink:href="#linearGradient3398" y1="2.1035039" y2="7.6472335"/>
    <linearGradient gradientUnits="userSpaceOnUse" id="linearGradient6089" inkscape:collect="always" x1="7.5647373" x2="5.5855722" xlink:href="#linearGradient3398" y1="2.6741056" y2="4.8494081"/>
    <radialGradient cx="5.7251329" cy="5.8061638" fx="5.7251329" fy="5.8061638" gradientTransform="matrix(1,0,0,0.9190153,0,0.4344651)" gradientUnits="userSpaceOnUse" id="radialGradient6113" inkscape:collect="always" r="3.8391297" xlink:href="#linearGradient6107"/>
    <radialGradient cx="5.3649516" cy="5.9023771" fx="5.3649516" fy="5.9023771" gradientTransform="matrix(1,0,0,0.9190153,0,0.4344651)" gradientUnits="userSpaceOnUse" id="radialGradient6123" inkscape:collect="always" r="3.8391297" xlink:href="#linearGradient6107"/>
    <radialGradient cx="10.279492" cy="9.8535538" fx="10.279492" fy="9.8535538" gradientTransform="matrix(1,0,0,1.5438597,0,-5.3589507)" gradientUnits="userSpaceOnUse" id="radialGradient5994" inkscape:collect="always" r="1.1076201" xlink:href="#linearGradient6067"/>
    <radialGradient cx="10.279492" cy="9.8535538" fx="10.279492" fy="9.8535538" gradientTransform="matrix(1,0,0,1.5438597,0,-5.3589507)" gradientUnits="userSpaceOnUse" id="radialGradient5996" inkscape:collect="always" r="1.1076201" xlink:href="#linearGradient6067"/>
    <radialGradient cx="24.466648" cy="34.233986" fx="24.466648" fy="34.233986" gradientTransform="matrix(1,0,0,0.1477394,0,25.308958)" gradientUnits="userSpaceOnUse" id="radialGradient6977" inkscape:collect="always" r="9.997899" xlink:href="#linearGradient6971"/>
    <linearGradient gradientTransform="translate(0,-2)" gradientUnits="userSpaceOnUse" id="linearGradient7031" inkscape:collect="always" x1="20.96875" x2="20.96875" xlink:href="#linearGradient7025" y1="23.8125" y2="26.067919"/>
    <linearGradient gradientTransform="translate(0,-2)" gradientUnits="userSpaceOnUse" id="linearGradient7039" inkscape:collect="always" x1="26.59375" x2="26.546921" xlink:href="#linearGradient7033" y1="23.8125" y2="25.90625"/>
  </defs>
  <sodipodi:namedview bordercolor="#f28f8f" borderopacity="1" fill="#eeeeec" gridtolerance="8" guidetolerance="6" height="48px" id="base" inkscape:current-layer="layer1" inkscape:cx="30.290912" inkscape:cy="15.731532" inkscape:document-units="px" inkscape:object-nodes="true" inkscape:object-paths="true" inkscape:pageopacity="0.0" inkscape:pageshadow="2" inkscape:showpageshadow="false" inkscape:window-height="925" inkscape:window-width="1280" inkscape:window-x="5" inkscape:window-y="24" inkscape:zoom="16" objecttolerance="12" pagecolor="#ffffff" showborder="true" showgrid="false" width="48px">
    <inkscape:grid empspacing="2" id="grid5394" spacingx="0.5px" spacingy="0.5px" type="xygrid"/>
  </sodipodi:namedview>
  <g id="layer1" inkscape:groupmode="layer" inkscape:label="Layer 1">
    <path d="M 9.133008,5.3647771 A 3.5560436,3.2451327 0 1 1 2.0209208,5.3647771 A 3.5560436,3.2451327 0 1 1 9.133008,5.3647771 z" id="path3342" sodipodi:cx="5.5769644" sodipodi:cy="5.3647771" sodipodi:rx="3.5560436" sodipodi:ry="3.2451327" sodipodi:type="arc" style="opacity:1;fill:url(#radialGradient6113);fill-opacity:1;fill-rule:evenodd;stroke:url(#linearGradient6014);stroke-width:0.56617205999999998;stroke-miterlimit:4;stroke-dasharray:none;stroke-opacity:1" transform="matrix(1.6872684,0,0,1.8489229,-0.909836,10.580941)"/>
    <path d="M 9.133008,5.3647771 C 9.133008,7.1560903 7.5399005,8.6099098 5.5769644,8.6099098 C 3.6140283,8.6099098 2.0209208,7.1560903 2.0209208,5.3647771 C 2.0209208,3.5734638 3.6140283,2.1196444 5.5769644,2.1196444 C 7.5399005,2.1196444 9.133008,3.5734638 9.133008,5.3647771 z " id="path6083" style="opacity:0.37647059;fill:none;fill-opacity:1;fill-rule:evenodd;stroke:url(#linearGradient6085);stroke-width:0.67889196;stroke-miterlimit:4;stroke-opacity:1" transform="matrix(1.406057,0,0,1.5431057,0.5959699,12.229164)"/>
    <path d="M 6.3348098,8.4155903 A 2.0597849,1.3602352 0 1 1 2.21524,8.4155903 A 2.0597849,1.3602352 0 1 1 6.3348098,8.4155903 z" id="path3359" sodipodi:cx="4.2750249" sodipodi:cy="8.4155903" sodipodi:rx="2.0597849" sodipodi:ry="1.3602352" sodipodi:type="arc" style="opacity:0.29999999999999999;fill:#5c3566;fill-opacity:1;fill-rule:evenodd;stroke:none;stroke-width:1;stroke-miterlimit:4;stroke-dasharray:none;stroke-opacity:1" transform="matrix(1.8498752,0,0,2.9620487,1.9020826,-3.8983056)"/>
    <path d="M 9.133008,5.3647771 A 3.5560436,3.2451327 0 1 1 2.0209208,5.3647771 A 3.5560436,3.2451327 0 1 1 9.133008,5.3647771 z" id="path3344" sodipodi:cx="5.5769644" sodipodi:cy="5.3647771" sodipodi:rx="3.5560436" sodipodi:ry="3.2451327" sodipodi:type="arc" style="opacity:1;fill:url(#radialGradient6123);fill-opacity:1;fill-rule:evenodd;stroke:url(#linearGradient6006);stroke-width:0.56617187999999996;stroke-miterlimit:4;stroke-dasharray:none;stroke-opacity:1" transform="matrix(1.6872685,0,0,1.848923,30.090164,10.58094)"/>
    <path d="M 37.357012,14.339669 C 38.272734,14.091905 39.199186,13.892425 40.197153,14.014764 C 40.072526,16.747787 39.494573,19.332396 39.024372,22.090832 C 40.71531,23.5377 41.427614,25.01852 42,26.5 C 41.323974,26.812313 40.227723,27.081771 39.069306,27 C 36.266476,23.990483 34.743011,20.018762 37.357012,14.339669 z" id="path6042" sodipodi:nodetypes="cccccc" style="opacity:0.25098039;fill:#000000;fill-opacity:1;fill-rule:evenodd;stroke:none;stroke-width:1px;stroke-linecap:butt;stroke-linejoin:miter;stroke-opacity:1"/>
    <path d="M 9.133008,5.3647771 C 9.133008,7.1560903 7.5399005,8.6099098 5.5769644,8.6099098 C 3.6140283,8.6099098 2.0209208,7.1560903 2.0209208,5.3647771 C 2.0209208,3.5734638 3.6140283,2.1196444 5.5769644,2.1196444 C 7.5399005,2.1196444 9.133008,3.5734638 9.133008,5.3647771 z " id="path6087" style="opacity:0.37647059;fill:none;fill-opacity:1;fill-rule:evenodd;stroke:url(#linearGradient6089);stroke-width:0.67889196;stroke-miterlimit:4;stroke-opacity:1" transform="matrix(1.406057,0,0,1.5431057,31.59597,12.229164)"/>
    <path d="M 6.3348098,8.4155903 A 2.0597849,1.3602352 0 1 1 2.21524,8.4155903 A 2.0597849,1.3602352 0 1 1 6.3348098,8.4155903 z" id="path3361" sodipodi:cx="4.2750249" sodipodi:cy="8.4155903" sodipodi:rx="2.0597849" sodipodi:ry="1.3602352" sodipodi:type="arc" style="opacity:0.3;fill:#5c3566;fill-opacity:1;fill-rule:evenodd;stroke:none;stroke-width:1;stroke-miterlimit:4;stroke-dasharray:none;stroke-opacity:1" transform="matrix(1.8869741,0,0,2.9576809,30.046378,-3.8505306)"/>
    <path d="M 17.393564,10.457643 A 6.6449099,2.3675451 0 1 1 4.1037445,10.457643 A 6.6449099,2.3675451 0 1 1 17.393564,10.457643 z" id="path3140" sodipodi:cx="10.748654" sodipodi:cy="10.457643" sodipodi:rx="6.6449099" sodipodi:ry="2.3675451" sodipodi:type="arc" style="opacity:0.6;fill:url(#radialGradient3363);fill-opacity:1;stroke:none;stroke-width:1;stroke-miterlimit:4;stroke-dasharray:none;stroke-opacity:1" transform="matrix(3.0098139,0,0,2.9630238,-8.3758807,8.9986641)"/>
    <path d="M 24.007921,4.4999999 C 15.737268,4.4999999 10.522194,9.0672863 10.522193,16.535901 L 11.544815,23.99974 C 9.3634284,25.095588 8.4310344,28.104989 8.4310344,31.183926 C 8.4310344,37.162551 13.62067,43.433324 24.014827,43.499468 C 34.544937,43.567169 39.568848,37.162551 39.568845,31.183926 C 39.582185,28.101693 38.486594,25.240757 36.455064,23.99974 L 37.507459,16.535901 C 37.507459,8.7636853 32.278573,4.4999999 24.007921,4.4999999 z" id="path3346" sodipodi:nodetypes="ccccscccs" style="fill:url(#radialGradient6022);fill-opacity:1;fill-rule:evenodd;stroke:url(#linearGradient5998);stroke-width:1.00000011999999994;stroke-miterlimit:4;stroke-opacity:1"/>
    <path d="M 24,5.53125 C 20.051508,5.53125 16.952589,6.5940986 14.84375,8.46875 C 12.734911,10.343401 11.5625,13.032657 11.5625,16.53125 L 12.53125,23.875 C 12.587063,24.29599 12.375182,24.707288 12,24.90625 C 11.192274,25.312021 10.563506,26.102241 10.125,27.21875 C 9.6864936,28.335259 9.46875,29.748389 9.46875,31.1875 C 9.4687503,36.580578 14.01212,42.405191 24,42.46875 C 34.116273,42.533788 38.531253,36.59598 38.53125,31.1875 C 38.543556,28.344349 37.511683,25.836634 35.9375,24.875 C 35.597929,24.663086 35.414403,24.271563 35.46875,23.875 L 36.46875,16.53125 C 36.46875,12.873011 35.296173,10.209067 33.1875,8.375 C 31.078827,6.540933 27.960923,5.53125 24,5.53125 z " id="path3380" style="opacity:0.5;fill:url(#radialGradient3396);fill-opacity:1;fill-rule:evenodd;stroke:url(#linearGradient3404);stroke-width:1;stroke-miterlimit:4;stroke-opacity:1"/>
    <path d="M 18.944444,13.001625 C 15.356444,13.001625 13.888889,15.443388 13.888889,19.001301 C 13.888889,20.780259 14.378332,22.631569 14.989583,24.000895 C 12.010416,24.806582 9.9375,25.813313 9.9375,31.063029 C 9.9375,35.806909 16,41 24,41 C 32,41 38.03125,35.744409 38.03125,31.000529 C 38.03125,26.500773 35.989585,24.775332 33.010416,23.969645 C 33.732639,22.469725 34.111111,20.780259 34.111111,19.001301 C 34.111111,15.443388 32.642185,13.099954 29.055555,13.001625 C 26.872133,12.942584 24.722221,14.501545 24.059542,16.075628 C 23.277778,14.501545 21.301818,13.060668 18.944444,13.001625 z " id="path3357" sodipodi:nodetypes="cscssscsscc" style="opacity:1;fill:url(#radialGradient6021);fill-opacity:1;fill-rule:evenodd;stroke:none;stroke-width:1;stroke-miterlimit:4;stroke-dasharray:none;stroke-opacity:1"/>
    <path d="M 13.850374 16.211924 A 2.6223004 1.1102164 0 1 1  8.6057737,16.211924 A 2.6223004 1.1102164 0 1 1  13.850374 16.211924 z" id="path5982" sodipodi:cx="11.228074" sodipodi:cy="16.211924" sodipodi:rx="2.6223004" sodipodi:ry="1.1102164" sodipodi:type="arc" style="opacity:0.22000002;fill:url(#radialGradient6050);fill-opacity:1;stroke:none;stroke-width:0.80000001;stroke-linecap:round;stroke-linejoin:miter;stroke-miterlimit:4;stroke-dasharray:none;stroke-opacity:1" transform="matrix(2.6729049,0,0,2.2640107,-6.0896987,-16.21751)"/>
    <path d="M 33.995257,28.078681 C 34.038381,31.739813 31.509745,30.918015 24.08169,30.92737 C 16.661276,30.936716 14,31.647754 14,28.045833 C 15.566613,29.578661 17.158297,29.505774 24.08169,29.486602 C 31.011105,29.467413 32.659269,29.624691 33.995257,28.078681 z " id="path6969" sodipodi:nodetypes="czczc" style="opacity:0.5;fill:url(#radialGradient6977);fill-opacity:1;stroke:none;stroke-width:1;stroke-miterlimit:4;stroke-dasharray:none;stroke-opacity:1"/>
    <path d="M 33.995257,28.068134 C 34.038381,30.553717 31.509745,29.995789 24.08169,30.00214 C 16.661276,30.008485 14,30.491217 14,28.045833 C 15.566613,29.086487 17.158297,29.037003 24.08169,29.023987 C 31.011105,29.010959 32.659269,29.117737 33.995257,28.068134 z " id="path2186" sodipodi:nodetypes="czczc" style="opacity:1;fill:#503201;fill-opacity:1;stroke:none;stroke-width:1;stroke-miterlimit:4;stroke-dasharray:none;stroke-opacity:1"/>
    <g id="g5986" transform="translate(2,0)">
      <path d="M 11.387112 9.8535538 A 1.1076201 1.7100101 0 1 1  9.1718723,9.8535538 A 1.1076201 1.7100101 0 1 1  11.387112 9.8535538 z" id="path6024" sodipodi:cx="10.279492" sodipodi:cy="9.8535538" sodipodi:rx="1.1076201" sodipodi:ry="1.7100101" sodipodi:type="arc" style="opacity:1;fill:url(#radialGradient5996);fill-opacity:1;fill-rule:evenodd;stroke:none;stroke-width:0.79457355;stroke-miterlimit:4;stroke-dasharray:none;stroke-opacity:1" transform="matrix(1.8056732,0,0,1.1695839,-0.5614042,6.4754422)"/>
      <path d="M 6.5000002 8.5870266 A 0.43086693 0.41297308 0 1 1  5.6382664,8.5870266 A 0.43086693 0.41297308 0 1 1  6.5000002 8.5870266 z" id="path5974" sodipodi:cx="6.0691333" sodipodi:cy="8.5870266" sodipodi:rx="0.43086693" sodipodi:ry="0.41297308" sodipodi:type="arc" style="opacity:0.43921569;fill:#eeeeec;fill-opacity:1;stroke:none;stroke-width:0.80000001;stroke-linecap:round;stroke-linejoin:miter;stroke-miterlimit:4;stroke-dasharray:none;stroke-opacity:1" transform="matrix(2.3209022,0,0,2.4214654,3.3518098,-3.7210354)"/>
    </g>
    <g id="g5990" transform="translate(-2,0)">
      <path d="M 11.387112 9.8535538 A 1.1076201 1.7100101 0 1 1  9.1718723,9.8535538 A 1.1076201 1.7100101 0 1 1  11.387112 9.8535538 z" id="path3340" sodipodi:cx="10.279492" sodipodi:cy="9.8535538" sodipodi:rx="1.1076201" sodipodi:ry="1.7100101" sodipodi:type="arc" style="opacity:1;fill:url(#radialGradient5994);fill-opacity:1;fill-rule:evenodd;stroke:none;stroke-width:1;stroke-miterlimit:4;stroke-dasharray:none;stroke-opacity:1" transform="matrix(1.8056732,0,0,1.1695839,11.438596,6.4754422)"/>
      <path d="M 6.5000002 8.5870266 A 0.43086693 0.41297308 0 1 1  5.6382664,8.5870266 A 0.43086693 0.41297308 0 1 1  6.5000002 8.5870266 z" id="path5976" sodipodi:cx="6.0691333" sodipodi:cy="8.5870266" sodipodi:rx="0.43086693" sodipodi:ry="0.41297308" sodipodi:type="arc" style="opacity:0.43921569;fill:#eeeeec;fill-opacity:1;stroke:none;stroke-width:0.80000001;stroke-linecap:round;stroke-linejoin:miter;stroke-miterlimit:4;stroke-dasharray:none;stroke-opacity:1" transform="matrix(2.2384755,0,0,2.414016,15.878879,-3.732296)"/>
    </g>
    <path d="M 21.5,21.8125 C 20.672,21.8125 20,22.523051 20,23.40625 C 20,23.417181 19.999795,23.426621 20,23.4375 C 20.700987,23.138082 21.727934,22.928798 22.90625,22.84375 C 22.6946,22.233767 22.14515,21.812499 21.5,21.8125 z " id="path6979" style="opacity:1;fill:url(#linearGradient7031);fill-opacity:1;stroke:none;stroke-width:0.80000001;stroke-linecap:round;stroke-linejoin:miter;stroke-miterlimit:4;stroke-dasharray:none;stroke-opacity:1"/>
    <path d="M 26.5,21.8125 C 25.85485,21.812499 25.3054,22.233767 25.09375,22.84375 C 26.272066,22.928798 27.299013,23.138082 28,23.4375 C 28.000205,23.426621 28,23.417181 28,23.40625 C 28,22.523051 27.328,21.8125 26.5,21.8125 z " id="path6997" style="opacity:1;fill:url(#linearGradient7039);fill-opacity:1;stroke:none;stroke-width:0.80000001;stroke-linecap:round;stroke-linejoin:miter;stroke-miterlimit:4;stroke-dasharray:none;stroke-opacity:1"/>
  </g>
</svg>
