<?xml version="1.0" encoding="UTF-8" standalone="no"?>
<!-- Created with Inkscape (http://www.inkscape.org/) --><svg height="48" id="svg2" inkscape:export-filename="/home/lapo/Desktop/smileys.png" inkscape:export-xdpi="90" inkscape:export-ydpi="90" inkscape:output_extension="org.inkscape.output.svg.inkscape" inkscape:version="0.45" sodipodi:docbase="/home/dobey/Projects/gnome-icon-theme/scalable/emotes" sodipodi:docname="face-cool.svg" sodipodi:version="0.32" version="1.0" width="48" xmlns="http://www.w3.org/2000/svg" xmlns:cc="http://web.resource.org/cc/" xmlns:dc="http://purl.org/dc/elements/1.1/" xmlns:inkscape="http://www.inkscape.org/namespaces/inkscape" xmlns:rdf="http://www.w3.org/1999/02/22-rdf-syntax-ns#" xmlns:sodipodi="http://sodipodi.sourceforge.net/DTD/sodipodi-0.dtd" xmlns:svg="http://www.w3.org/2000/svg" xmlns:xlink="http://www.w3.org/1999/xlink">
  <metadata>
    <rdf:RDF xmlns:cc="http://web.resource.org/cc/" xmlns:dc="http://purl.org/dc/elements/1.1/" xmlns:rdf="http://www.w3.org/1999/02/22-rdf-syntax-ns#">
      <cc:Work rdf:about="">
        <dc:title>Lapo Calamandrei</dc:title>
        <dc:description></dc:description>
        <dc:subject>
          <rdf:Bag>
            <rdf:li>unsorted</rdf:li>
          </rdf:Bag>
        </dc:subject>
        <dc:publisher>
          <cc:Agent rdf:about="http://www.openclipart.org/">
            <dc:title>Open Clip Art Library, Source: GNOME Icon Theme, Source: GNOME Icon Theme, Source: GNOME Icon Theme, Source: GNOME Icon Theme</dc:title>
          </cc:Agent>
        </dc:publisher>
        <dc:creator>
          <cc:Agent>
            <dc:title>Lapo Calamandrei</dc:title>
          </cc:Agent>
        </dc:creator>
        <dc:rights>
          <cc:Agent>
            <dc:title>Lapo Calamandrei</dc:title>
          </cc:Agent>
        </dc:rights>
        <dc:date></dc:date>
        <dc:format>image/svg+xml</dc:format>
        <dc:type rdf:resource="http://purl.org/dc/dcmitype/StillImage"/>
        <cc:license rdf:resource="http://creativecommons.org/licenses/GPL/2.0/"/>
        <dc:language>emote, smiley, emoticon, cool, glasses, smile</dc:language>
      </cc:Work>
    </rdf:RDF>
  </metadata>
  <defs id="defs4">
    <linearGradient id="linearGradient7638" inkscape:collect="always">
      <stop id="stop7640" offset="0" style="stop-color:#729fcf;stop-opacity:1"/>
      <stop id="stop7642" offset="1" style="stop-color:#729fcf;stop-opacity:0"/>
    </linearGradient>
    <linearGradient id="linearGradient7620" inkscape:collect="always">
      <stop id="stop7622" offset="0" style="stop-color:#2e3436;stop-opacity:1;"/>
      <stop id="stop7624" offset="1" style="stop-color:#2e3436;stop-opacity:0;"/>
    </linearGradient>
    <linearGradient id="linearGradient7567" inkscape:collect="always">
      <stop id="stop7569" offset="0" style="stop-color:#ffffff;stop-opacity:1;"/>
      <stop id="stop7571" offset="1" style="stop-color:#ffffff;stop-opacity:0;"/>
    </linearGradient>
    <linearGradient id="linearGradient7549">
      <stop id="stop7551" offset="0" style="stop-color:#000000;stop-opacity:1;"/>
      <stop id="stop7553" offset="1" style="stop-color:#888a85;stop-opacity:1"/>
    </linearGradient>
    <linearGradient id="linearGradient7519" inkscape:collect="always">
      <stop id="stop7521" offset="0" style="stop-color:#2e3436;stop-opacity:1"/>
      <stop id="stop7523" offset="1" style="stop-color:#2e3436;stop-opacity:0"/>
    </linearGradient>
    <linearGradient id="linearGradient8431" inkscape:collect="always">
      <stop id="stop8433" offset="0" style="stop-color:#ffffff;stop-opacity:1;"/>
      <stop id="stop8435" offset="1" style="stop-color:#ffffff;stop-opacity:0;"/>
    </linearGradient>
    <linearGradient id="linearGradient3535" inkscape:collect="always">
      <stop id="stop3537" offset="0" style="stop-color:white;stop-opacity:1;"/>
      <stop id="stop3539" offset="1" style="stop-color:white;stop-opacity:0;"/>
    </linearGradient>
    <linearGradient id="linearGradient3752">
      <stop id="stop3754" offset="0" style="stop-color:white;stop-opacity:1"/>
      <stop id="stop3756" offset="0.80000001" style="stop-color:#fce94f;stop-opacity:1;"/>
      <stop id="stop3758" offset="1" style="stop-color:#edd400;stop-opacity:1"/>
    </linearGradient>
    <linearGradient id="linearGradient3734" inkscape:collect="always">
      <stop id="stop3736" offset="0" style="stop-color:black;stop-opacity:1;"/>
      <stop id="stop3738" offset="1" style="stop-color:black;stop-opacity:0;"/>
    </linearGradient>
    <linearGradient id="linearGradient3712">
      <stop id="stop3714" offset="0" style="stop-color:white;stop-opacity:1;"/>
      <stop id="stop3716" offset="1" style="stop-color:white;stop-opacity:0.50570345"/>
    </linearGradient>
    <radialGradient cx="12.046875" cy="10.046875" fx="12.046875" fy="10.046875" gradientUnits="userSpaceOnUse" id="radialGradient6472" inkscape:collect="always" r="9.546875" xlink:href="#linearGradient3734"/>
    <radialGradient cx="9.3747082" cy="7.8025141" fx="9.3747082" fy="7.8025141" gradientTransform="matrix(1.200799,0,0,1.200799,-1.921023,-1.565398)" gradientUnits="userSpaceOnUse" id="radialGradient6474" inkscape:collect="always" r="10.049342" xlink:href="#linearGradient3752"/>
    <linearGradient gradientUnits="userSpaceOnUse" id="linearGradient6476" inkscape:collect="always" x1="18.825819" x2="19.23638" xlink:href="#linearGradient8431" y1="-140.43388" y2="-134.38734"/>
    <radialGradient cx="5.3851099" cy="3.2659137" fx="5.3851099" fy="3.2659137" gradientTransform="matrix(1.242401,0,0,1.242401,-1.281477,-0.839422)" gradientUnits="userSpaceOnUse" id="radialGradient6478" inkscape:collect="always" r="10.108456" xlink:href="#linearGradient3712"/>
    <radialGradient cx="25.350018" cy="33.075127" fx="25.350018" fy="33.075127" gradientTransform="matrix(1.226297,0,0,0.4280258,-5.64917,17.377619)" gradientUnits="userSpaceOnUse" id="radialGradient6480" inkscape:collect="always" r="14.499996" xlink:href="#linearGradient3535"/>
    <linearGradient gradientUnits="userSpaceOnUse" id="linearGradient7525" inkscape:collect="always" x1="43.78125" x2="44.3125" xlink:href="#linearGradient7519" y1="14.6875" y2="13.375"/>
    <linearGradient gradientUnits="userSpaceOnUse" id="linearGradient7555" inkscape:collect="always" x1="22" x2="-3.8114223" xlink:href="#linearGradient7549" y1="19" y2="17.493725"/>
    <linearGradient gradientUnits="userSpaceOnUse" id="linearGradient7563" inkscape:collect="always" x1="40.875" x2="19.25" xlink:href="#linearGradient7549" y1="20.125" y2="16"/>
    <linearGradient gradientUnits="userSpaceOnUse" id="linearGradient7573" inkscape:collect="always" x1="12.3125" x2="12.3125" xlink:href="#linearGradient7567" y1="17.102404" y2="23.001324"/>
    <linearGradient gradientUnits="userSpaceOnUse" id="linearGradient7577" inkscape:collect="always" x1="15.936422" x2="15.936422" xlink:href="#linearGradient7567" y1="17.340279" y2="23.019377"/>
    <radialGradient cx="10.472023" cy="20.833914" fx="10.472023" fy="20.833914" gradientTransform="matrix(-1.4271074,0,0,0.7135537,33.225952,2.2588835)" gradientUnits="userSpaceOnUse" id="radialGradient7589" inkscape:collect="always" r="8" xlink:href="#linearGradient7638"/>
    <radialGradient cx="11.339117" cy="21.94875" fx="11.339117" fy="21.94875" gradientTransform="matrix(1.4271074,0,0,0.7135537,-7.225952,2.2588835)" gradientUnits="userSpaceOnUse" id="radialGradient7597" inkscape:collect="always" r="8" xlink:href="#linearGradient7638"/>
    <linearGradient gradientTransform="translate(0,-1)" gradientUnits="userSpaceOnUse" id="linearGradient7626" inkscape:collect="always" x1="4.5496697" x2="4.5496697" xlink:href="#linearGradient7620" y1="15.21875" y2="14.71875"/>
  </defs>
  <sodipodi:namedview bordercolor="#666666" borderlayer="false" borderopacity="1.0" gridempspacing="2" gridspacingx="0.5px" gridspacingy="0.5px" height="48px" id="base" inkscape:current-layer="layer1" inkscape:cx="11.868692" inkscape:cy="95.365818" inkscape:document-units="px" inkscape:grid-bbox="true" inkscape:grid-points="true" inkscape:guide-bbox="true" inkscape:object-paths="false" inkscape:object-points="false" inkscape:pageopacity="0" inkscape:pageshadow="2" inkscape:showpageshadow="false" inkscape:window-height="940" inkscape:window-width="1112" inkscape:window-x="50" inkscape:window-y="39" inkscape:zoom="1" pagecolor="#ffffff" showborder="false" showgrid="false" showguides="false" width="48px">
    <sodipodi:guide id="guide8441" orientation="vertical" position="24"/>
    <sodipodi:guide id="guide8443" orientation="horizontal" position="175"/>
    <sodipodi:guide id="guide7776" orientation="horizontal" position="167.00978"/>
    <sodipodi:guide id="guide7778" orientation="vertical" position="71.020038"/>
  </sodipodi:namedview>
  <g id="layer1" inkscape:groupmode="layer" inkscape:label="Livello 1" style="display:inline">
    <g id="g7909" transform="translate(-106,-6)"/>
    <path d="M 21.59375 10.046875 A 9.546875 9.546875 0 1 1  2.5,10.046875 A 9.546875 9.546875 0 1 1  21.59375 10.046875 z" id="path6446" inkscape:export-filename="/home/lapo/Desktop/something-along-the-lines.png" inkscape:export-xdpi="90" inkscape:export-ydpi="90" sodipodi:cx="12.046875" sodipodi:cy="10.046875" sodipodi:rx="9.546875" sodipodi:ry="9.546875" sodipodi:type="arc" style="opacity:0.4;fill:url(#radialGradient6472);fill-opacity:1;stroke:none;stroke-width:0.46570092;stroke-linecap:round;stroke-linejoin:miter;stroke-miterlimit:4;stroke-dasharray:none;stroke-dashoffset:0;stroke-opacity:1;display:inline" transform="matrix(2.4091653,0,0,1.2045827,-5.022913,23.39771)"/>
    <path d="M 42.451535,15.5 C 43.427778,15.5 44.890953,15.125 44.40307,14 C 43.915186,12.875 40.500001,12.5 40.500001,12.5" id="path7513" sodipodi:nodetypes="csc" style="fill:none;fill-rule:evenodd;stroke:#2e3436;stroke-width:3;stroke-linecap:round;stroke-linejoin:round;stroke-miterlimit:4;stroke-dasharray:none;stroke-opacity:1;display:inline"/>
    <path d="M 42.5,15.5 C 43.500488,15.5 45,15.069444 44.5,13.777778 C 44,12.486111 40.5,12.055555 40.5,12.055555" id="path7509" sodipodi:nodetypes="csc" style="fill:none;fill-rule:evenodd;stroke:#d3d7cf;stroke-width:1px;stroke-linecap:round;stroke-linejoin:round;stroke-opacity:1"/>
    <path d="M 5.599339,15.5 C 4.598851,15.5 3.099339,15.125 3.599339,14 C 4.099339,12.875 7.599339,12.5 7.599339,12.5" id="path7527" sodipodi:nodetypes="csc" style="fill:none;fill-rule:evenodd;stroke:#2e3436;stroke-width:3;stroke-linecap:round;stroke-linejoin:round;stroke-miterlimit:4;stroke-dasharray:none;stroke-opacity:1;display:inline"/>
    <path d="M 5.599339,15.5 C 4.598851,15.5 3.099339,15.125 3.599339,14 C 4.099339,12.875 7.599339,12.5 7.599339,12.5" id="path7535" sodipodi:nodetypes="csc" style="fill:none;fill-rule:evenodd;stroke:#d3d7cf;stroke-width:1px;stroke-linecap:round;stroke-linejoin:round;stroke-opacity:1;display:inline"/>
    <path d="M 21.59375 10.046875 A 9.546875 9.546875 0 1 1  2.5,10.046875 A 9.546875 9.546875 0 1 1  21.59375 10.046875 z" id="path6448" inkscape:export-filename="/home/lapo/Desktop/something-along-the-lines.png" inkscape:export-xdpi="90" inkscape:export-ydpi="90" sodipodi:cx="12.046875" sodipodi:cy="10.046875" sodipodi:rx="9.546875" sodipodi:ry="9.546875" sodipodi:type="arc" style="fill:url(#radialGradient6474);fill-opacity:1;stroke:#c4a000;stroke-width:0.46570092;stroke-linecap:round;stroke-linejoin:miter;stroke-miterlimit:4;stroke-dasharray:none;stroke-dashoffset:0;stroke-opacity:1;display:inline" transform="matrix(2.1473,0,0,2.1473,-1.8687,1.4268)"/>
    <path d="M 25.6875 -135.96875 A 6.125 5.96875 0 1 1  13.4375,-135.96875 A 6.125 5.96875 0 1 1  25.6875 -135.96875 z" id="path6450" inkscape:transform-center-x="1.9734894" inkscape:transform-center-y="-7.3651901" sodipodi:cx="19.5625" sodipodi:cy="-135.96875" sodipodi:rx="6.125" sodipodi:ry="5.96875" sodipodi:type="arc" style="opacity:1;fill:url(#linearGradient6476);fill-opacity:1;fill-rule:evenodd;stroke:none;stroke-width:1;stroke-linecap:round;stroke-linejoin:miter;stroke-miterlimit:4;stroke-dasharray:none;stroke-dashoffset:0.69999992;stroke-opacity:1;display:inline" transform="matrix(2.2078305,-0.5915864,0.4553048,1.6992208,40.743051,258.37364)"/>
    <path d="M 21.59375 10.046875 A 9.546875 9.546875 0 1 1  2.5,10.046875 A 9.546875 9.546875 0 1 1  21.59375 10.046875 z" id="path6452" inkscape:export-filename="/home/lapo/Desktop/something-along-the-lines.png" inkscape:export-xdpi="90" inkscape:export-ydpi="90" sodipodi:cx="12.046875" sodipodi:cy="10.046875" sodipodi:rx="9.546875" sodipodi:ry="9.546875" sodipodi:type="arc" style="opacity:1;fill:none;fill-opacity:1;stroke:url(#radialGradient6478);stroke-width:0.48958337;stroke-linecap:round;stroke-linejoin:miter;stroke-miterlimit:4;stroke-dasharray:none;stroke-dashoffset:0;stroke-opacity:1;display:inline" transform="matrix(2.042553,0,0,2.042553,-0.6064,2.47871)"/>
    <path d="M 7.46875,15.5 C 6.379124,15.5 4.5,16 4.5,18.46875 L 4.5,19.5 C 4.5,23 8.291,24.5 13,24.5 C 17.709,24.499999 21.5,23.040624 21.5,21.21875 L 21.5,18.5625 C 22.0255,18.563306 22.466779,18.156534 22.5,17.625 C 22.524434,17.612889 22.50743,17.615722 22.59375,17.59375 C 22.888254,17.518785 23.464286,17.5 24,17.5 C 24.535714,17.5 25.111746,17.518785 25.40625,17.59375 C 25.49257,17.615722 25.475566,17.612889 25.5,17.625 C 25.533221,18.156534 25.9745,18.563306 26.5,18.5625 L 26.5,21.21875 C 26.5,23.040624 30.291,24.499999 35,24.5 C 39.709,24.5 43.5,23 43.5,19.5 L 43.5,18.46875 C 43.5,16 41.620876,15.5 40.53125,15.5 C 39,15.5 37.125625,16.5 34,16.5 C 31.223099,16.5 29.46875,16.5 29.46875,16.5 C 28.893235,16.5 28.09092,16.734188 27.46875,17.125 C 27.388066,16.759572 27.185561,16.419024 26.9375,16.1875 C 26.606752,15.878802 26.250069,15.743768 25.90625,15.65625 C 25.218611,15.481215 24.535714,15.5 24,15.5 C 23.464286,15.5 22.781389,15.481215 22.09375,15.65625 C 21.749931,15.743768 21.393248,15.878801 21.0625,16.1875 C 20.814439,16.419024 20.611934,16.759572 20.53125,17.125 C 19.90908,16.734188 19.106765,16.5 18.53125,16.5 C 18.53125,16.5 16.776901,16.5 14,16.5 C 10.874375,16.5 9,15.5 7.46875,15.5 z " id="path7599" style="opacity:0.15;fill:#000000;fill-opacity:1;stroke:#000000;stroke-width:1;stroke-linecap:square;stroke-linejoin:round;stroke-miterlimit:4;stroke-dasharray:none;stroke-dashoffset:0.7;stroke-opacity:1;display:inline"/>
    <path d="M 18.53125,15.5 C 19.622447,15.5 21.5,16.377553 21.5,17.46875 L 21.5,20.21875 C 21.5,22.040624 17.709,23.499999 13,23.5 C 8.291,23.5 4.5,22 4.5,18.5 L 4.5,17.46875 C 4.5,15 6.379124,14.5 7.46875,14.5 C 9,14.5 10.874375,15.5 14,15.5 C 16.776901,15.5 18.53125,15.5 18.53125,15.5 z " id="path7507" sodipodi:nodetypes="cccsccssc" style="opacity:1;fill:url(#linearGradient7555);fill-opacity:1;stroke:#000000;stroke-width:1;stroke-linecap:square;stroke-linejoin:round;stroke-miterlimit:4;stroke-dasharray:none;stroke-dashoffset:0.7;stroke-opacity:1;display:inline"/>
    <path d="M 7.46875,16 C 7.0002564,16 6.361096,16.120939 5.875,16.46875 C 5.388904,16.816561 5,17.360971 5,18.46875 L 5,19.5 C 5,21.069852 5.7943668,22.121726 7.21875,22.875 C 8.6431332,23.628274 10.698479,24 13,24 C 15.302956,24 17.387343,23.624234 18.84375,23.0625 C 19.571953,22.781633 20.138076,22.456579 20.5,22.125 C 20.861924,21.793421 21,21.501178 21,21.21875 L 21,18.46875 C 21,18.209326 20.717067,17.811022 20.1875,17.5 C 19.657933,17.188978 18.943093,17 18.53125,17 C 18.53125,17 16.776901,17 14,17 C 10.767952,17 8.7827666,16 7.46875,16 z " id="path7595" inkscape:original="M 7.46875 15.5 C 6.379124 15.5 4.5 16 4.5 18.46875 L 4.5 19.5 C 4.5 23 8.291 24.5 13 24.5 C 17.709 24.499999 21.5 23.040624 21.5 21.21875 L 21.5 18.46875 C 21.5 17.377553 19.622447 16.5 18.53125 16.5 C 18.53125 16.5 16.776901 16.5 14 16.5 C 10.874375 16.5 9 15.5 7.46875 15.5 z " inkscape:radius="-0.49895787" sodipodi:type="inkscape:offset" style="opacity:0.25;fill:url(#radialGradient7597);fill-opacity:1;stroke:none;stroke-width:1;stroke-linecap:square;stroke-linejoin:round;stroke-miterlimit:4;stroke-dasharray:none;stroke-dashoffset:0.7;stroke-opacity:1;display:inline" transform="translate(0,-1)"/>
    <path d="M 7.46875,15.5 C 7.0785846,15.5 6.5193023,15.615229 6.15625,15.875 C 5.7931977,16.134771 5.5,16.4909 5.5,17.46875 L 5.5,18.5 C 5.5,19.884963 6.1593063,20.713761 7.46875,21.40625 C 8.7781937,22.098739 10.752853,22.5 13,22.5 C 15.250055,22.5 17.281916,22.123829 18.65625,21.59375 C 19.343417,21.328711 19.863152,21.018524 20.15625,20.75 C 20.449348,20.481476 20.5,20.323583 20.5,20.21875 L 20.5,17.46875 C 20.5,17.503034 20.35759,17.202578 19.90625,16.9375 C 19.45491,16.672422 18.805816,16.5 18.53125,16.5 C 18.53125,16.5 16.776901,16.5 14,16.5 C 10.658728,16.5 8.5598156,15.5 7.46875,15.5 z " id="path7539" inkscape:original="M 7.46875 14.5 C 6.379124 14.5 4.5 15 4.5 17.46875 L 4.5 18.5 C 4.5 22 8.291 23.5 13 23.5 C 17.709 23.499999 21.5 22.040624 21.5 20.21875 L 21.5 17.46875 C 21.5 16.377553 19.622447 15.5 18.53125 15.5 C 18.53125 15.5 16.776901 15.5 14 15.5 C 10.874375 15.5 9 14.5 7.46875 14.5 z " inkscape:radius="-1.0110486" sodipodi:type="inkscape:offset" style="opacity:0.15;fill:none;fill-opacity:1;stroke:url(#linearGradient7573);stroke-width:1;stroke-linecap:square;stroke-linejoin:round;stroke-miterlimit:4;stroke-dasharray:none;stroke-dashoffset:0.7;stroke-opacity:1;display:inline"/>
    <path d="M 5.599339,15.5 C 4.598851,15.5 3.099339,15 3.599339,13.5" id="path7529" sodipodi:nodetypes="cs" style="fill:none;fill-opacity:1;fill-rule:evenodd;stroke:url(#linearGradient7626);stroke-width:3;stroke-linecap:round;stroke-linejoin:round;stroke-miterlimit:4;stroke-dasharray:none;stroke-opacity:1;display:inline"/>
    <path d="M 5.599339,15.5 C 4.598851,15.5 3.099339,15 3.599339,13.5" id="path7531" sodipodi:nodetypes="cs" style="fill:none;fill-rule:evenodd;stroke:#d3d7cf;stroke-width:1px;stroke-linecap:round;stroke-linejoin:round;stroke-opacity:1;display:inline"/>
    <path d="M 10.249995,26.750011 C 10,29 11.307695,31.805458 23.999992,31.805458 C 36.692313,31.805458 37.749987,29.013845 37.749987,26.750011" id="path6454" inkscape:export-filename="/home/lapo/Desktop/something-along-the-lines.png" inkscape:export-xdpi="90" inkscape:export-ydpi="90" sodipodi:nodetypes="czc" style="fill:none;fill-rule:evenodd;stroke:url(#radialGradient6480);stroke-width:1.50000012;stroke-linecap:round;stroke-linejoin:miter;stroke-miterlimit:4;stroke-dasharray:none;stroke-opacity:1;display:inline"/>
    <path d="M 10.500004,26.5 C 10.500004,29 11.538455,30.5 23.999767,30.5 C 36.461103,30.5 37.499529,29 37.499529,26.5" id="path6456" inkscape:export-filename="/home/lapo/Desktop/something-along-the-lines.png" inkscape:export-xdpi="90" inkscape:export-ydpi="90" sodipodi:nodetypes="czc" style="fill:none;fill-rule:evenodd;stroke:#c4a000;stroke-width:0.99999976px;stroke-linecap:round;stroke-linejoin:miter;stroke-opacity:1;display:inline"/>
    <path d="M 29.46875,15.5 C 28.377553,15.5 26.5,16.377553 26.5,17.46875 L 26.5,20.21875 C 26.5,22.040624 30.291,23.499999 35,23.5 C 39.709,23.5 43.5,22 43.5,18.5 L 43.5,17.46875 C 43.5,15 41.620876,14.5 40.53125,14.5 C 39,14.5 37.125625,15.5 34,15.5 C 31.223099,15.5 29.46875,15.5 29.46875,15.5 z " id="path6501" sodipodi:nodetypes="cccsccssc" style="opacity:1;fill:url(#linearGradient7563);fill-opacity:1;stroke:#000000;stroke-width:1;stroke-linecap:square;stroke-linejoin:round;stroke-miterlimit:4;stroke-dasharray:none;stroke-dashoffset:0.7;stroke-opacity:1;display:inline"/>
    <path d="M 7.46875,16 C 7.0002564,16 6.361096,16.120939 5.875,16.46875 C 5.388904,16.816561 5,17.360971 5,18.46875 L 5,19.5 C 5,21.069852 5.7943668,22.121726 7.21875,22.875 C 8.6431332,23.628274 10.698479,24 13,24 C 15.302956,24 17.387343,23.624234 18.84375,23.0625 C 19.571953,22.781633 20.138076,22.456579 20.5,22.125 C 20.861924,21.793421 21,21.501178 21,21.21875 L 21,18.46875 C 21,18.209326 20.717067,17.811022 20.1875,17.5 C 19.657933,17.188978 18.943093,17 18.53125,17 C 18.53125,17 16.776901,17 14,17 C 10.767952,17 8.7827666,16 7.46875,16 z " id="path7581" inkscape:original="M 7.46875 15.5 C 6.379124 15.5 4.5 16 4.5 18.46875 L 4.5 19.5 C 4.5 23 8.291 24.5 13 24.5 C 17.709 24.499999 21.5 23.040624 21.5 21.21875 L 21.5 18.46875 C 21.5 17.377553 19.622447 16.5 18.53125 16.5 C 18.53125 16.5 16.776901 16.5 14 16.5 C 10.874375 16.5 9 15.5 7.46875 15.5 z " inkscape:radius="-0.49895787" sodipodi:type="inkscape:offset" style="opacity:0.25;fill:url(#radialGradient7589);fill-opacity:1;stroke:none;stroke-width:1;stroke-linecap:square;stroke-linejoin:round;stroke-miterlimit:4;stroke-dasharray:none;stroke-dashoffset:0.7;stroke-opacity:1;display:inline" transform="matrix(-1,0,0,1,48,-1)"/>
    <path d="M 7.46875,15.5 C 7.0785846,15.5 6.5193023,15.615229 6.15625,15.875 C 5.7931977,16.134771 5.5,16.4909 5.5,17.46875 L 5.5,18.5 C 5.5,19.884963 6.1593063,20.713761 7.46875,21.40625 C 8.7781937,22.098739 10.752853,22.5 13,22.5 C 15.250055,22.5 17.281916,22.123829 18.65625,21.59375 C 19.343417,21.328711 19.863152,21.018524 20.15625,20.75 C 20.449348,20.481476 20.5,20.323583 20.5,20.21875 L 20.5,17.46875 C 20.5,17.503034 20.35759,17.202578 19.90625,16.9375 C 19.45491,16.672422 18.805816,16.5 18.53125,16.5 C 18.53125,16.5 16.776901,16.5 14,16.5 C 10.658728,16.5 8.5598156,15.5 7.46875,15.5 z " id="path7575" inkscape:original="M 7.46875 14.5 C 6.379124 14.5 4.5 15 4.5 17.46875 L 4.5 18.5 C 4.5 22 8.291 23.5 13 23.5 C 17.709 23.499999 21.5 22.040624 21.5 20.21875 L 21.5 17.46875 C 21.5 16.377553 19.622447 15.5 18.53125 15.5 C 18.53125 15.5 16.776901 15.5 14 15.5 C 10.874375 15.5 9 14.5 7.46875 14.5 z " inkscape:radius="-1.0110486" sodipodi:type="inkscape:offset" style="opacity:0.15;fill:none;fill-opacity:1;stroke:url(#linearGradient7577);stroke-width:1;stroke-linecap:square;stroke-linejoin:round;stroke-miterlimit:4;stroke-dasharray:none;stroke-dashoffset:0.7;stroke-opacity:1;display:inline" transform="matrix(-1,0,0,1,48,0)"/>
    <path d="M 21.5,16.5 C 21.5,15.5 22.928571,15.5 24,15.5 C 25.071428,15.5 26.5,15.5 26.5,16.5" id="path7487" sodipodi:nodetypes="csc" style="fill:none;fill-rule:evenodd;stroke:#2e3436;stroke-width:3;stroke-linecap:round;stroke-linejoin:miter;stroke-miterlimit:4;stroke-dasharray:none;stroke-opacity:1"/>
    <path d="M 21.5,16.5 C 21.5,15.5 22.928571,15.5 24,15.5 C 25.071428,15.5 26.5,15.5 26.5,16.5" id="path7503" sodipodi:nodetypes="csc" style="fill:none;fill-rule:evenodd;stroke:#d3d7cf;stroke-width:1;stroke-linecap:round;stroke-linejoin:miter;stroke-miterlimit:4;stroke-dasharray:none;stroke-opacity:1;display:inline"/>
    <path d="M 42.5,15.5 C 43.500488,15.5 45,15 44.5,13.5" id="path7517" sodipodi:nodetypes="cs" style="fill:none;fill-opacity:1;fill-rule:evenodd;stroke:url(#linearGradient7525);stroke-width:3;stroke-linecap:round;stroke-linejoin:round;stroke-miterlimit:4;stroke-dasharray:none;stroke-opacity:1;display:inline"/>
    <path d="M 42.5,15.5 C 43.500488,15.5 45,15 44.5,13.5" id="path7515" sodipodi:nodetypes="cs" style="fill:none;fill-rule:evenodd;stroke:#d3d7cf;stroke-width:1px;stroke-linecap:round;stroke-linejoin:round;stroke-opacity:1;display:inline"/>
    <path d="M 22.5 16.5 A 0.5 0.5 0 1 1  21.5,16.5 A 0.5 0.5 0 1 1  22.5 16.5 z" id="path7628" sodipodi:cx="22" sodipodi:cy="16.5" sodipodi:rx="0.5" sodipodi:ry="0.5" sodipodi:type="arc" style="opacity:1;fill:#ffffff;fill-opacity:1;stroke:none;stroke-width:1;stroke-linecap:round;stroke-linejoin:round;stroke-miterlimit:4;stroke-dasharray:none;stroke-dashoffset:0.7;stroke-opacity:1" transform="matrix(1.5,0,0,1.5,-10.75,-9.5)"/>
    <path d="M 22.5 16.5 A 0.5 0.5 0 1 1  21.5,16.5 A 0.5 0.5 0 1 1  22.5 16.5 z" id="path7630" sodipodi:cx="22" sodipodi:cy="16.5" sodipodi:rx="0.5" sodipodi:ry="0.5" sodipodi:type="arc" style="opacity:1;fill:#ffffff;fill-opacity:1;stroke:none;stroke-width:1;stroke-linecap:round;stroke-linejoin:round;stroke-miterlimit:4;stroke-dasharray:none;stroke-dashoffset:0.7;stroke-opacity:1;display:inline" transform="matrix(1.5,0,0,1.5,-29.25,-10.5)"/>
    <path d="M 22.5 16.5 A 0.5 0.5 0 1 1  21.5,16.5 A 0.5 0.5 0 1 1  22.5 16.5 z" id="path7632" sodipodi:cx="22" sodipodi:cy="16.5" sodipodi:rx="0.5" sodipodi:ry="0.5" sodipodi:type="arc" style="opacity:1;fill:#ffffff;fill-opacity:1;stroke:none;stroke-width:1;stroke-linecap:round;stroke-linejoin:round;stroke-miterlimit:4;stroke-dasharray:none;stroke-dashoffset:0.7;stroke-opacity:1;display:inline" transform="matrix(1.5,0,0,1.5,9.75,-9.5)"/>
  </g>
</svg>
